<?xml version="1.0" encoding="utf-8"?>
<!-- Generator: Adobe Illustrator 25.2.1, SVG Export Plug-In . SVG Version: 6.00 Build 0)  -->
<svg version="1.1" id="Layer_1" xmlns="http://www.w3.org/2000/svg" xmlns:xlink="http://www.w3.org/1999/xlink" x="0px" y="0px"
	 viewBox="0 0 993.7 324.3" style="enable-background:new 0 0 993.7 324.3;" xml:space="preserve">
<style type="text/css">
	.st0{fill:#2F4C76;}
	.st1{fill:#438BF1;}
	.st2{fill:#E6E6E6;}
</style>
<g>
	<polygon class="st0" points="380.3,195.5 383.2,272.2 376.2,272.2 376.2,280.9 395.9,280.9 395.9,272.2 390.1,272.2 390.5,195.5 	
		"/>
	<path class="st0" d="M372.7,259.9L372.7,259.9c3,0,5.4,2.4,5.4,5.4l0,0v22.4c0,3-2.4,5.4-5.4,5.4l0,0l0,0c-3,0-5.4-2.4-5.4-5.4l0,0
		v-22.4C367.3,262.3,369.7,259.9,372.7,259.9L372.7,259.9z"/>
	<path class="st0" d="M400.2,259.9L400.2,259.9c3,0,5.4,2.4,5.4,5.4l0,0v22.4c0,3-2.4,5.4-5.4,5.4l0,0l0,0c-3,0-5.4-2.4-5.4-5.4l0,0
		v-22.4C394.8,262.3,397.2,259.9,400.2,259.9L400.2,259.9z"/>
	<polygon class="st1" points="444.4,147.7 332.9,142.6 350.3,134.7 448,136.1 	"/>
	<polygon class="st1" points="-0.7,162.8 12.8,157.8 430.7,168.6 448,160.7 440.8,209.9 108.8,174.5 	"/>
	<polygon class="st0" points="107.5,187.5 109.5,170.6 441.5,206 441.5,230.9 	"/>
	<ellipse class="st0" cx="330.8" cy="200.9" rx="34.4" ry="36.6"/>
	<circle class="st1" cx="330.1" cy="198.3" r="25.3"/>
	<polygon class="st0" points="613.4,195.5 610.5,272.2 617.5,272.2 617.5,280.9 597.8,280.9 597.8,272.2 603.6,272.2 603.2,195.5 	
		"/>
	<path class="st0" d="M621,259.9L621,259.9c3,0,5.4,2.4,5.4,5.4l0,0v22.4c0,3-2.4,5.4-5.4,5.4l0,0l0,0c-3,0-5.4-2.4-5.4-5.4l0,0
		v-22.4C615.6,262.3,618,259.9,621,259.9L621,259.9z"/>
	<path class="st0" d="M593.5,259.9L593.5,259.9c3,0,5.4,2.4,5.4,5.4l0,0v22.4c0,3-2.4,5.4-5.4,5.4l0,0l0,0c-3,0-5.4-2.4-5.4-5.4l0,0
		v-22.4C588.1,262.3,590.5,259.9,593.5,259.9L593.5,259.9z"/>
	<polygon class="st1" points="549.3,147.7 660.8,142.6 643.4,134.7 545.7,136.1 	"/>
	<polygon class="st1" points="509.4,132.1 504.4,20.6 496.4,38 497.9,135.7 	"/>
	<polygon class="st1" points="993,162.8 979.6,157.8 561.7,168.6 544.3,160.7 551.5,209.9 883.5,174.5 	"/>
	<polygon class="st0" points="886.3,187.5 884.2,170.6 552.2,206 554,230.9 	"/>
	<ellipse class="st0" cx="663" cy="200.9" rx="34.4" ry="36.6"/>
	<circle class="st1" cx="662.3" cy="198.3" r="25.3"/>
	<path class="st1" d="M560,133.8l-1.6,12.1l-0.9,65.2c-0.1,4.8-0.7,9.6-1.8,14.3c-3.2,13.6-10.7,25.9-21.5,34.8
		c-9.9,8.1-23.5,14.2-41.4,13.2c-47.8-2.9-52-43.5-52-43.5l1.8-73.7l0.2-10.1l2.2-18.2c0,0,5.8-51.4,59.3-49.9S560,133.8,560,133.8z
		"/>
	<polygon class="st2" points="456.7,116.8 467.6,99.4 481.3,95.1 528.3,95.1 539.9,99.4 550.4,116.8 531.2,108.1 477.4,108.1 	"/>
	<polygon class="st0" points="496.5,241.7 498.4,290.9 493.8,290.9 493.8,296.5 506.5,296.5 506.5,290.9 502.8,290.9 503.1,241.7 	
		"/>
	<path class="st0" d="M491.6,283L491.6,283c1.9,0,3.5,1.6,3.5,3.5v14.4c0,1.9-1.6,3.5-3.5,3.5l0,0c-1.9,0-3.5-1.6-3.5-3.5v-14.4
		C488.2,284.6,489.7,283.1,491.6,283z"/>
	<path class="st0" d="M509.3,283L509.3,283c1.9,0,3.5,1.6,3.5,3.5v14.4c0,1.9-1.6,3.5-3.5,3.5l0,0c-1.9,0-3.5-1.6-3.5-3.5v-14.4
		C505.8,284.6,507.4,283,509.3,283z"/>
	
		<rect x="460.3" y="101.7" transform="matrix(0.2676 -0.9635 0.9635 0.2676 251.8477 536.7021)" class="st1" width="37.4" height="2"/>
	<rect x="527" y="85" transform="matrix(0.9812 -0.1929 0.1929 0.9812 -10.0805 103.7982)" class="st1" width="2" height="37.4"/>
	<circle class="st1" cx="736" cy="21.3" r="13"/>
	<circle class="st1" cx="376.2" cy="63.8" r="13"/>
	<circle class="st1" cx="195.7" cy="308.6" r="13"/>
</g>
</svg>
